<svg width="29" height="29" viewBox="0 0 29 29" fill="none" xmlns="http://www.w3.org/2000/svg">
<g clip-path="url(#clip0)">
<path d="M10.5005 10.5063C10.8757 10.5063 11.1797 10.8104 11.1797 11.1855V24.0216C11.1797 24.3964 10.8757 24.7007 10.5005 24.7007C10.1254 24.7007 9.82137 24.3964 9.82137 24.0216V11.1855C9.82137 10.8104 10.1254 10.5063 10.5005 10.5063Z" fill="white"/>
<path d="M18.5142 10.5063C18.8893 10.5063 19.1934 10.8104 19.1934 11.1855V24.0216C19.1934 24.3964 18.8893 24.7007 18.5142 24.7007C18.1391 24.7007 17.835 24.3964 17.835 24.0216V11.1855C17.835 10.8104 18.1391 10.5063 18.5142 10.5063Z" fill="white"/>
<path d="M24.3543 8.63309V25.366C24.3543 26.3551 23.9916 27.2839 23.3581 27.9503C22.7275 28.6185 21.8499 28.9979 20.9315 28.9995H8.08164C7.16292 28.9979 6.28533 28.6185 5.65499 27.9503C5.02146 27.2839 4.6588 26.3551 4.6588 25.366V8.63309C3.39945 8.29882 2.5834 7.08218 2.75187 5.78993C2.92059 4.49794 4.0213 3.53147 5.32443 3.53121H8.80165V2.68226C8.79767 1.96835 9.07994 1.28283 9.58533 0.778507C10.0907 0.274446 10.7773 -0.00623553 11.4912 -0.000399046H17.5219C18.2358 -0.00623553 18.9224 0.274446 19.4278 0.778507C19.9332 1.28283 20.2154 1.96835 20.2114 2.68226V3.53121H23.6887C24.9918 3.53147 26.0925 4.49794 26.2612 5.78993C26.4297 7.08218 25.6136 8.29882 24.3543 8.63309ZM8.08164 27.6412H20.9315C22.0927 27.6412 22.996 26.6437 22.996 25.366V8.69278H6.01711V25.366C6.01711 26.6437 6.92044 27.6412 8.08164 27.6412ZM18.8531 2.68226C18.8576 2.32862 18.7186 1.98825 18.4677 1.73861C18.217 1.48897 17.8758 1.35181 17.5219 1.35791H11.4912C11.1373 1.35181 10.7961 1.48897 10.5454 1.73861C10.2945 1.98799 10.1554 2.32862 10.16 2.68226V3.53121H18.8531V2.68226ZM23.6887 4.88952H5.32443C4.64925 4.88952 4.10195 5.43682 4.10195 6.11199C4.10195 6.78717 4.64925 7.33447 5.32443 7.33447H23.6887C24.3638 7.33447 24.9111 6.78717 24.9111 6.11199C24.9111 5.43682 24.3638 4.88952 23.6887 4.88952Z" fill="white"/>
<path d="M14.5064 10.5063C14.8815 10.5063 15.1855 10.8104 15.1855 11.1855V24.0216C15.1855 24.3964 14.8815 24.7007 14.5064 24.7007C14.1313 24.7007 13.8272 24.3964 13.8272 24.0216V11.1855C13.8272 10.8104 14.1313 10.5063 14.5064 10.5063Z" fill="white"/>
</g>
<defs>
<clipPath id="clip0">
<rect width="29" height="29" fill="white" transform="matrix(-1 0 0 1 29 0)"/>
</clipPath>
</defs>
</svg>
