<svg width="273" height="60" viewBox="0 0 273 60" fill="none" xmlns="http://www.w3.org/2000/svg">
<path d="M57.576 41V19.528H65.816C68.2907 19.528 70.2533 20.1253 71.704 21.32C73.1547 22.504 73.88 24.2587 73.88 26.584C73.88 28.8987 73.1547 30.6587 71.704 31.864C70.2533 33.0587 68.2907 33.656 65.816 33.656H62.728V41H57.576ZM62.728 29.176H65.816C66.744 29.176 67.4427 28.92 67.912 28.408C68.392 27.8853 68.632 27.2773 68.632 26.584C68.632 25.88 68.392 25.2667 67.912 24.744C67.4427 24.2213 66.744 23.96 65.816 23.96H62.728V29.176ZM71.301 41L78.533 19.528H85.045L91.877 41H86.485L85.317 37.224H77.909L76.741 41H71.301ZM79.205 33.432H84.149L81.717 25.576L79.205 33.432ZM92.7478 41V19.528H101.132C103.82 19.528 105.905 20.1467 107.388 21.384C108.881 22.6107 109.628 24.2587 109.628 26.328C109.628 28.3547 108.881 29.9813 107.388 31.208C105.905 32.424 103.82 33.032 101.132 33.032H97.8678V41H92.7478ZM103.948 41L98.7158 30.632H104.124L110.652 41H103.948ZM97.8678 29.704H100.556C101.825 29.704 102.774 29.4427 103.404 28.92C104.044 28.3867 104.364 27.7093 104.364 26.888C104.364 26.0347 104.092 25.336 103.548 24.792C103.014 24.2373 102.209 23.96 101.132 23.96H97.8678V29.704ZM124.453 19.528H131.445L116.837 34.376V27.512L124.453 19.528ZM121.045 28.2L132.053 41H125.509L117.557 31.544L121.045 28.2ZM111.973 19.528H117.125V41H111.973V19.528ZM129.945 41L137.177 19.528H143.689L150.521 41H145.129L143.961 37.224H136.553L135.385 41H129.945ZM137.849 33.432H142.793L140.361 25.576L137.849 33.432ZM151.296 19.528H156.64L165.264 32.52H164.912V19.528H170.032V41H165.088L155.568 26.728H156.416V41H151.296V19.528ZM173.054 19.528H178.174V27.992H186.286V19.528H191.454V41H186.286V32.504H178.174V41H173.054V19.528ZM203.282 41.512C201.245 41.512 199.464 41.0853 197.938 40.232C196.424 39.368 195.245 38.0987 194.402 36.424C193.56 34.7387 193.138 32.664 193.138 30.2C193.138 27.672 193.56 25.5867 194.402 23.944C195.245 22.2907 196.424 21.064 197.938 20.264C199.464 19.4533 201.245 19.048 203.282 19.048C205.341 19.048 207.133 19.4693 208.658 20.312C210.194 21.1547 211.384 22.4027 212.226 24.056C213.069 25.7093 213.49 27.7573 213.49 30.2C213.49 32.7067 213.069 34.8027 212.226 36.488C211.384 38.1627 210.194 39.4213 208.658 40.264C207.133 41.096 205.341 41.512 203.282 41.512ZM203.282 36.92C204.776 36.92 205.97 36.3333 206.866 35.16C207.762 33.976 208.21 32.312 208.21 30.168C208.21 28.152 207.762 26.5627 206.866 25.4C205.97 24.2267 204.776 23.64 203.282 23.64C201.832 23.64 200.658 24.2267 199.762 25.4C198.866 26.5627 198.418 28.1627 198.418 30.2C198.418 32.3227 198.866 33.976 199.762 35.16C200.658 36.3333 201.832 36.92 203.282 36.92ZM214.984 19.528H220.104V32.552C220.104 34.0773 220.494 35.176 221.272 35.848C222.051 36.52 223.027 36.856 224.2 36.856C225.395 36.856 226.382 36.52 227.16 35.848C227.95 35.176 228.344 34.0773 228.344 32.552V19.528H233.448V32.552C233.448 34.3653 233.091 35.944 232.376 37.288C231.662 38.632 230.616 39.672 229.24 40.408C227.864 41.144 226.184 41.512 224.2 41.512C222.216 41.512 220.536 41.144 219.16 40.408C217.795 39.672 216.755 38.632 216.04 37.288C215.336 35.944 214.984 34.3653 214.984 32.552V19.528ZM244.153 41.512C242.617 41.512 241.193 41.256 239.881 40.744C238.569 40.2213 237.502 39.4107 236.681 38.312C235.859 37.2027 235.406 35.7627 235.321 33.992H240.377C240.377 34.6427 240.542 35.1813 240.873 35.608C241.203 36.0347 241.651 36.3493 242.217 36.552C242.793 36.7547 243.427 36.856 244.121 36.856C244.675 36.856 245.193 36.808 245.673 36.712C246.163 36.616 246.558 36.4453 246.857 36.2C247.155 35.9547 247.305 35.6187 247.305 35.192C247.305 34.6693 247.145 34.28 246.825 34.024C246.515 33.768 245.95 33.4747 245.129 33.144L240.457 31.112C238.921 30.4507 237.726 29.672 236.873 28.776C236.019 27.88 235.593 26.6587 235.593 25.112C235.593 23.2987 236.329 21.8373 237.801 20.728C239.283 19.608 241.31 19.048 243.881 19.048C246.494 19.048 248.499 19.6667 249.897 20.904C251.294 22.1307 252.078 23.8853 252.249 26.168H247.225C247.097 25.464 246.782 24.872 246.281 24.392C245.79 23.912 244.99 23.672 243.881 23.672C243.081 23.672 242.435 23.8213 241.945 24.12C241.454 24.408 241.209 24.7707 241.209 25.208C241.209 25.6133 241.363 25.9333 241.673 26.168C241.993 26.4027 242.467 26.6587 243.097 26.936L248.041 29.032C249.683 29.7467 250.905 30.584 251.705 31.544C252.515 32.504 252.921 33.656 252.921 35C252.921 36.44 252.574 37.6453 251.881 38.616C251.198 39.576 250.201 40.3013 248.889 40.792C247.587 41.272 246.009 41.512 244.153 41.512ZM255.141 41V19.528H269.493V23.96H260.261V28.088H268.917V32.536H260.261V36.52H269.493V41H255.141Z" fill="#004AAD"/>
<path d="M7 41L14.5 36.5V45.5L7 41Z" fill="#004AAD"/>
<path d="M17 34.5V47L24 51V30.5L17 34.5Z" fill="#004AAD"/>
<path d="M7 41L14.5 36.5V45.5L7 41Z" stroke="#004AAD" stroke-width="0.5"/>
<path d="M17 34.5V47L24 51V30.5L17 34.5Z" stroke="#004AAD" stroke-width="0.5"/>
<path d="M26.5 29V51.5L34 47V24.5L26.5 29Z" fill="#004AAD"/>
<path d="M36.5 23.5V45.5L44 41.5V19L36.5 23.5Z" fill="#004AAD"/>
<path d="M26.5 29V51.5L34 47V24.5L26.5 29Z" stroke="#004AAD" stroke-width="0.5"/>
<path d="M36.5 23.5V45.5L44 41.5V19L36.5 23.5Z" stroke="#004AAD" stroke-width="0.5"/>
<path d="M18.5 23.5V17.5H24.5V23.5H18.5Z" fill="#FED530"/>
<path d="M26.5 23.5V17.5H32.5V23.5H26.5Z" fill="#FED530"/>
<path d="M18.5 31V25.5H24.5V27.5L18.5 31Z" fill="#FED530"/>
<path d="M26.5 26.5V25.5H29L26.5 26.5Z" fill="#FED530"/>
<path d="M0.5 15V27L4.5 25V17.5L25.5 5.5L46.5 17.8485V42L25.5 54L18.5 50L14 52.5L25.5 59L51 44.5V15L40.5 9V6L35 3V6L26 1H25L0.5 15Z" fill="#FED530"/>
<path d="M18.5 23.5V17.5H24.5V23.5H18.5Z" stroke="#FED530" stroke-width="0.5"/>
<path d="M26.5 23.5V17.5H32.5V23.5H26.5Z" stroke="#FED530" stroke-width="0.5"/>
<path d="M18.5 31V25.5H24.5V27.5L18.5 31Z" stroke="#FED530" stroke-width="0.5"/>
<path d="M26.5 26.5V25.5H29L26.5 26.5Z" stroke="#FED530" stroke-width="0.5"/>
<path d="M0.5 15V27L4.5 25V17.5L25.5 5.5L46.5 17.8485V42L25.5 54L18.5 50L14 52.5L25.5 59L51 44.5V15L40.5 9V6L35 3V6L26 1H25L0.5 15Z" stroke="#FED530" stroke-width="0.5"/>
</svg>
