<svg width="70" height="70" viewBox="0 0 70 70" fill="none" xmlns="http://www.w3.org/2000/svg">
<path d="M4.644 67V61.632H6.704C7.32267 61.632 7.81333 61.7813 8.176 62.08C8.53867 62.376 8.72 62.8147 8.72 63.396C8.72 63.9747 8.53867 64.4147 8.176 64.716C7.81333 65.0147 7.32267 65.164 6.704 65.164H5.932V67H4.644ZM5.932 64.044H6.704C6.936 64.044 7.11067 63.98 7.228 63.852C7.348 63.7213 7.408 63.5693 7.408 63.396C7.408 63.22 7.348 63.0667 7.228 62.936C7.11067 62.8053 6.936 62.74 6.704 62.74H5.932V64.044ZM8.87525 67L10.6832 61.632H12.3112L14.0192 67H12.6713L12.3793 66.056H10.5272L10.2352 67H8.87525ZM10.8512 65.108H12.0872L11.4792 63.144L10.8512 65.108ZM15.0369 67V61.632H17.1329C17.8049 61.632 18.3263 61.7867 18.6969 62.096C19.0703 62.4027 19.2569 62.8147 19.2569 63.332C19.2569 63.8387 19.0703 64.2453 18.6969 64.552C18.3263 64.856 17.8049 65.008 17.1329 65.008H16.3169V67H15.0369ZM17.8369 67L16.5289 64.408H17.8809L19.5129 67H17.8369ZM16.3169 64.176H16.9889C17.3063 64.176 17.5436 64.1107 17.7009 63.98C17.8609 63.8467 17.9409 63.6773 17.9409 63.472C17.9409 63.2587 17.8729 63.084 17.7369 62.948C17.6036 62.8093 17.4023 62.74 17.1329 62.74H16.3169V64.176ZM23.7632 61.632H25.5112L21.8592 65.344V63.628L23.7632 61.632ZM22.9112 63.8L25.6632 67H24.0272L22.0392 64.636L22.9112 63.8ZM20.6432 61.632H21.9312V67H20.6432V61.632ZM25.9362 67L27.7442 61.632H29.3722L31.0802 67H29.7322L29.4402 66.056H27.5882L27.2962 67H25.9362ZM27.9122 65.108H29.1482L28.5402 63.144L27.9122 65.108ZM32.0739 61.632H33.4099L35.5659 64.88H35.4779V61.632H36.7579V67H35.5219L33.1419 63.432H33.3539V67H32.0739V61.632ZM38.3135 61.632H39.5935V63.748H41.6215V61.632H42.9135V67H41.6215V64.876H39.5935V67H38.3135V61.632ZM46.6706 67.128C46.1613 67.128 45.716 67.0213 45.3346 66.808C44.956 66.592 44.6613 66.2747 44.4506 65.856C44.24 65.4347 44.1346 64.916 44.1346 64.3C44.1346 63.668 44.24 63.1467 44.4506 62.736C44.6613 62.3227 44.956 62.016 45.3346 61.816C45.716 61.6133 46.1613 61.512 46.6706 61.512C47.1853 61.512 47.6333 61.6173 48.0146 61.828C48.3986 62.0387 48.696 62.3507 48.9066 62.764C49.1173 63.1773 49.2226 63.6893 49.2226 64.3C49.2226 64.9267 49.1173 65.4507 48.9066 65.872C48.696 66.2907 48.3986 66.6053 48.0146 66.816C47.6333 67.024 47.1853 67.128 46.6706 67.128ZM46.6706 65.98C47.044 65.98 47.3426 65.8333 47.5666 65.54C47.7906 65.244 47.9026 64.828 47.9026 64.292C47.9026 63.788 47.7906 63.3907 47.5666 63.1C47.3426 62.8067 47.044 62.66 46.6706 62.66C46.308 62.66 46.0146 62.8067 45.7906 63.1C45.5666 63.3907 45.4546 63.7907 45.4546 64.3C45.4546 64.8307 45.5666 65.244 45.7906 65.54C46.0146 65.8333 46.308 65.98 46.6706 65.98ZM50.3961 61.632H51.6761V64.888C51.6761 65.2693 51.7734 65.544 51.9681 65.712C52.1627 65.88 52.4067 65.964 52.7001 65.964C52.9987 65.964 53.2454 65.88 53.4401 65.712C53.6374 65.544 53.7361 65.2693 53.7361 64.888V61.632H55.0121V64.888C55.0121 65.3413 54.9227 65.736 54.7441 66.072C54.5654 66.408 54.3041 66.668 53.9601 66.852C53.6161 67.036 53.1961 67.128 52.7001 67.128C52.2041 67.128 51.7841 67.036 51.4401 66.852C51.0987 66.668 50.8387 66.408 50.6601 66.072C50.4841 65.736 50.3961 65.3413 50.3961 64.888V61.632ZM58.4882 67.128C58.1042 67.128 57.7482 67.064 57.4202 66.936C57.0922 66.8053 56.8255 66.6027 56.6202 66.328C56.4149 66.0507 56.3015 65.6907 56.2802 65.248H57.5442C57.5442 65.4107 57.5855 65.5453 57.6682 65.652C57.7509 65.7587 57.8629 65.8373 58.0042 65.888C58.1482 65.9387 58.3069 65.964 58.4802 65.964C58.6189 65.964 58.7482 65.952 58.8682 65.928C58.9909 65.904 59.0895 65.8613 59.1642 65.8C59.2389 65.7387 59.2762 65.6547 59.2762 65.548C59.2762 65.4173 59.2362 65.32 59.1562 65.256C59.0789 65.192 58.9375 65.1187 58.7322 65.036L57.5642 64.528C57.1802 64.3627 56.8815 64.168 56.6682 63.944C56.4549 63.72 56.3482 63.4147 56.3482 63.028C56.3482 62.5747 56.5322 62.2093 56.9002 61.932C57.2709 61.652 57.7775 61.512 58.4202 61.512C59.0735 61.512 59.5749 61.6667 59.9242 61.976C60.2735 62.2827 60.4695 62.7213 60.5122 63.292H59.2562C59.2242 63.116 59.1455 62.968 59.0202 62.848C58.8975 62.728 58.6975 62.668 58.4202 62.668C58.2202 62.668 58.0589 62.7053 57.9362 62.78C57.8135 62.852 57.7522 62.9427 57.7522 63.052C57.7522 63.1533 57.7909 63.2333 57.8682 63.292C57.9482 63.3507 58.0669 63.4147 58.2242 63.484L59.4602 64.008C59.8709 64.1867 60.1762 64.396 60.3762 64.636C60.5789 64.876 60.6802 65.164 60.6802 65.5C60.6802 65.86 60.5935 66.1613 60.4202 66.404C60.2495 66.644 60.0002 66.8253 59.6722 66.948C59.3469 67.068 58.9522 67.128 58.4882 67.128ZM62.0352 67V61.632H65.6232V62.74H63.3152V63.772H65.4792V64.884H63.3152V65.88H65.6232V67H62.0352Z" fill="#004AAD"/>
<path d="M17 42L24.5 37.5V46.5L17 42Z" fill="#004AAD"/>
<path d="M27 35.5V48L34 52V31.5L27 35.5Z" fill="#004AAD"/>
<path d="M17 42L24.5 37.5V46.5L17 42Z" stroke="#004AAD" stroke-width="0.5"/>
<path d="M27 35.5V48L34 52V31.5L27 35.5Z" stroke="#004AAD" stroke-width="0.5"/>
<path d="M36.5 30V52.5L44 48V25.5L36.5 30Z" fill="#004AAD"/>
<path d="M46.5 24.5V46.5L54 42.5V20L46.5 24.5Z" fill="#004AAD"/>
<path d="M36.5 30V52.5L44 48V25.5L36.5 30Z" stroke="#004AAD" stroke-width="0.5"/>
<path d="M46.5 24.5V46.5L54 42.5V20L46.5 24.5Z" stroke="#004AAD" stroke-width="0.5"/>
<path d="M28.5 24.5V18.5H34.5V24.5H28.5Z" fill="#FED530"/>
<path d="M36.5 24.5V18.5H42.5V24.5H36.5Z" fill="#FED530"/>
<path d="M28.5 32V26.5H34.5V28.5L28.5 32Z" fill="#FED530"/>
<path d="M36.5 27.5V26.5H39L36.5 27.5Z" fill="#FED530"/>
<path d="M10.5 16V28L14.5 26V18.5L35.5 6.5L56.5 18.8485V43L35.5 55L28.5 51L24 53.5L35.5 60L61 45.5V16L50.5 10V7L45 4V7L36 2H35L10.5 16Z" fill="#FED530"/>
<path d="M28.5 24.5V18.5H34.5V24.5H28.5Z" stroke="#FED530" stroke-width="0.5"/>
<path d="M36.5 24.5V18.5H42.5V24.5H36.5Z" stroke="#FED530" stroke-width="0.5"/>
<path d="M28.5 32V26.5H34.5V28.5L28.5 32Z" stroke="#FED530" stroke-width="0.5"/>
<path d="M36.5 27.5V26.5H39L36.5 27.5Z" stroke="#FED530" stroke-width="0.5"/>
<path d="M10.5 16V28L14.5 26V18.5L35.5 6.5L56.5 18.8485V43L35.5 55L28.5 51L24 53.5L35.5 60L61 45.5V16L50.5 10V7L45 4V7L36 2H35L10.5 16Z" stroke="#FED530" stroke-width="0.5"/>
</svg>
