<svg width="70" height="70" viewBox="0 0 70 70" fill="none" xmlns="http://www.w3.org/2000/svg">
<path d="M28.5 24.5V18.5H34.5V24.5H28.5Z" fill="#FFDE59"/>
<path d="M36.5 24.5V18.5H42.5V24.5H36.5Z" fill="#FFDE59"/>
<path d="M28.5 32V26.5H34.5V28.5L28.5 32Z" fill="#FFDE59"/>
<path d="M36.5 27.5V26.5H39L36.5 27.5Z" fill="#FFDE59"/>
<path d="M10.5 16V28L14.5 26V18.5L35.5 6.5L56.5 18.8485V43L35.5 55L28.5 51L24 53.5L35.5 60L61 45.5V16L50.5 10V7L45 4V7L36 2H35L10.5 16Z" fill="#FFDE59"/>
<path d="M28.5 24.5V18.5H34.5V24.5H28.5Z" stroke="#FFDE59" stroke-width="0.5"/>
<path d="M36.5 24.5V18.5H42.5V24.5H36.5Z" stroke="#FFDE59" stroke-width="0.5"/>
<path d="M28.5 32V26.5H34.5V28.5L28.5 32Z" stroke="#FFDE59" stroke-width="0.5"/>
<path d="M36.5 27.5V26.5H39L36.5 27.5Z" stroke="#FFDE59" stroke-width="0.5"/>
<path d="M10.5 16V28L14.5 26V18.5L35.5 6.5L56.5 18.8485V43L35.5 55L28.5 51L24 53.5L35.5 60L61 45.5V16L50.5 10V7L45 4V7L36 2H35L10.5 16Z" stroke="#FFDE59" stroke-width="0.5"/>
</svg>
