<svg aria-hidden="true" style="position: absolute; width: 0; height: 0; overflow: hidden;" version="1.1" xmlns="http://www.w3.org/2000/svg" xmlns:xlink="http://www.w3.org/1999/xlink">
<defs>
<symbol id="icon-instagram" viewBox="0 0 24 28">
<path d="M16 14c0-2.203-1.797-4-4-4s-4 1.797-4 4 1.797 4 4 4 4-1.797 4-4zM18.156 14c0 3.406-2.75 6.156-6.156 6.156s-6.156-2.75-6.156-6.156 2.75-6.156 6.156-6.156 6.156 2.75 6.156 6.156zM19.844 7.594c0 0.797-0.641 1.437-1.437 1.437s-1.437-0.641-1.437-1.437 0.641-1.437 1.437-1.437 1.437 0.641 1.437 1.437zM12 4.156c-1.75 0-5.5-0.141-7.078 0.484-0.547 0.219-0.953 0.484-1.375 0.906s-0.688 0.828-0.906 1.375c-0.625 1.578-0.484 5.328-0.484 7.078s-0.141 5.5 0.484 7.078c0.219 0.547 0.484 0.953 0.906 1.375s0.828 0.688 1.375 0.906c1.578 0.625 5.328 0.484 7.078 0.484s5.5 0.141 7.078-0.484c0.547-0.219 0.953-0.484 1.375-0.906s0.688-0.828 0.906-1.375c0.625-1.578 0.484-5.328 0.484-7.078s0.141-5.5-0.484-7.078c-0.219-0.547-0.484-0.953-0.906-1.375s-0.828-0.688-1.375-0.906c-1.578-0.625-5.328-0.484-7.078-0.484zM24 14c0 1.656 0.016 3.297-0.078 4.953-0.094 1.922-0.531 3.625-1.937 5.031s-3.109 1.844-5.031 1.937c-1.656 0.094-3.297 0.078-4.953 0.078s-3.297 0.016-4.953-0.078c-1.922-0.094-3.625-0.531-5.031-1.937s-1.844-3.109-1.937-5.031c-0.094-1.656-0.078-3.297-0.078-4.953s-0.016-3.297 0.078-4.953c0.094-1.922 0.531-3.625 1.937-5.031s3.109-1.844 5.031-1.937c1.656-0.094 3.297-0.078 4.953-0.078s3.297-0.016 4.953 0.078c1.922 0.094 3.625 0.531 5.031 1.937s1.844 3.109 1.937 5.031c0.094 1.656 0.078 3.297 0.078 4.953z"></path>
</symbol>
<symbol id="icon-facebook-square" viewBox="0 0 24 28">
<path d="M19.5 2c2.484 0 4.5 2.016 4.5 4.5v15c0 2.484-2.016 4.5-4.5 4.5h-2.938v-9.297h3.109l0.469-3.625h-3.578v-2.312c0-1.047 0.281-1.75 1.797-1.75l1.906-0.016v-3.234c-0.328-0.047-1.469-0.141-2.781-0.141-2.766 0-4.672 1.687-4.672 4.781v2.672h-3.125v3.625h3.125v9.297h-8.313c-2.484 0-4.5-2.016-4.5-4.5v-15c0-2.484 2.016-4.5 4.5-4.5h15z"></path>
</symbol>
<symbol id="icon-check" viewBox="0 0 28 28">
<path d="M26.109 8.844c0 0.391-0.156 0.781-0.438 1.062l-13.438 13.438c-0.281 0.281-0.672 0.438-1.062 0.438s-0.781-0.156-1.062-0.438l-7.781-7.781c-0.281-0.281-0.438-0.672-0.438-1.062s0.156-0.781 0.438-1.062l2.125-2.125c0.281-0.281 0.672-0.438 1.062-0.438s0.781 0.156 1.062 0.438l4.594 4.609 10.25-10.266c0.281-0.281 0.672-0.438 1.062-0.438s0.781 0.156 1.062 0.438l2.125 2.125c0.281 0.281 0.438 0.672 0.438 1.062z"></path>
</symbol>
<symbol id="icon-whatsapp" viewBox="0 0 24 28">
<path d="M15.391 15.219c0.266 0 2.812 1.328 2.922 1.516 0.031 0.078 0.031 0.172 0.031 0.234 0 0.391-0.125 0.828-0.266 1.188-0.359 0.875-1.813 1.437-2.703 1.437-0.75 0-2.297-0.656-2.969-0.969-2.234-1.016-3.625-2.75-4.969-4.734-0.594-0.875-1.125-1.953-1.109-3.031v-0.125c0.031-1.031 0.406-1.766 1.156-2.469 0.234-0.219 0.484-0.344 0.812-0.344 0.187 0 0.375 0.047 0.578 0.047 0.422 0 0.5 0.125 0.656 0.531 0.109 0.266 0.906 2.391 0.906 2.547 0 0.594-1.078 1.266-1.078 1.625 0 0.078 0.031 0.156 0.078 0.234 0.344 0.734 1 1.578 1.594 2.141 0.719 0.688 1.484 1.141 2.359 1.578 0.109 0.063 0.219 0.109 0.344 0.109 0.469 0 1.25-1.516 1.656-1.516zM12.219 23.5c5.406 0 9.812-4.406 9.812-9.812s-4.406-9.812-9.812-9.812-9.812 4.406-9.812 9.812c0 2.063 0.656 4.078 1.875 5.75l-1.234 3.641 3.781-1.203c1.594 1.047 3.484 1.625 5.391 1.625zM12.219 1.906c6.5 0 11.781 5.281 11.781 11.781s-5.281 11.781-11.781 11.781c-1.984 0-3.953-0.5-5.703-1.469l-6.516 2.094 2.125-6.328c-1.109-1.828-1.687-3.938-1.687-6.078 0-6.5 5.281-11.781 11.781-11.781z"></path>
</symbol>
<symbol id="icon-viber" viewBox="0 0 32 32">
<path d="M15.197 0.003c-2.567 0.035-8.089 0.456-11.179 3.287-2.293 2.28-3.095 5.641-3.188 9.804-0.080 4.147-0.173 11.933 7.333 14.055v3.227c0 0-0.051 1.293 0.803 1.56 1.053 0.333 1.653-0.665 2.653-1.732l1.867-2.107c5.133 0.427 9.067-0.559 9.52-0.705 1.040-0.333 6.908-1.081 7.868-8.869 0.987-8.041-0.48-13.108-3.12-15.401l-0.013-0.003c-0.8-0.733-4-3.067-11.16-3.093 0 0-0.528-0.033-1.384-0.021zM15.287 2.265c0.727-0.004 1.173 0.027 1.173 0.027 6.053 0.013 8.948 1.84 9.628 2.453 2.227 1.905 3.371 6.475 2.533 13.189-0.8 6.507-5.56 6.92-6.44 7.2-0.373 0.12-3.84 0.973-8.203 0.693 0 0-3.252 3.921-4.265 4.935-0.16 0.173-0.347 0.227-0.467 0.2-0.173-0.040-0.227-0.253-0.213-0.547l0.027-5.359c-6.361-1.76-5.988-8.403-5.921-11.869 0.080-3.467 0.733-6.309 2.667-8.229 2.609-2.36 7.3-2.68 9.481-2.693zM15.767 5.732c-0 0-0.001 0-0.001 0-0.22 0-0.399 0.178-0.399 0.399 0 0 0 0 0 0v0c0 0.221 0.179 0.4 0.4 0.4v0c0.043-0.001 0.093-0.001 0.143-0.001 2.034 0 3.88 0.809 5.232 2.123l-0.002-0.002c1.453 1.413 2.161 3.307 2.188 5.787 0 0.221 0.179 0.4 0.4 0.4v0-0.012c0.221 0 0.4-0.179 0.4-0.4v0c0.005-0.109 0.008-0.236 0.008-0.364 0-2.326-0.923-4.436-2.423-5.985l0.002 0.002c-1.587-1.547-3.589-2.347-5.948-2.347zM10.495 6.652c-0.054-0.008-0.116-0.013-0.18-0.013-0.236 0-0.457 0.064-0.646 0.176l0.006-0.003h-0.016c-0.547 0.32-1.051 0.72-1.531 1.253-0.36 0.427-0.561 0.852-0.615 1.265-0.009 0.064-0.014 0.137-0.014 0.212 0 0.182 0.029 0.357 0.084 0.521l-0.003-0.012 0.027 0.013c0.458 1.331 0.998 2.476 1.646 3.549l-0.046-0.082c0.895 1.608 1.922 2.996 3.101 4.237l-0.008-0.009 0.040 0.053 0.053 0.040 0.080 0.080c1.236 1.174 2.628 2.205 4.136 3.053l0.104 0.054c1.76 0.96 2.829 1.413 3.469 1.6v0.013c0.187 0.053 0.357 0.080 0.531 0.080 0.57-0.043 1.079-0.274 1.471-0.631l-0.002 0.002c0.52-0.467 0.933-0.984 1.24-1.531v-0.013c0.307-0.573 0.2-1.121-0.24-1.495-0.845-0.742-1.782-1.421-2.781-2.007l-0.085-0.046c-0.68-0.373-1.373-0.147-1.653 0.227l-0.6 0.759c-0.307 0.373-0.867 0.32-0.867 0.32l-0.016 0.013c-4.16-1.067-5.267-5.279-5.267-5.279s-0.053-0.573 0.333-0.867l0.747-0.6c0.36-0.293 0.613-0.987 0.227-1.667-0.631-1.084-1.31-2.022-2.071-2.887l0.017 0.020c-0.166-0.204-0.399-0.349-0.665-0.399l-0.007-0.001zM16.459 7.839c-0.22 0.001-0.399 0.18-0.399 0.4s0.179 0.4 0.4 0.4c0 0 0.001 0 0.001 0h-0c1.388 0.025 2.636 0.607 3.532 1.532l0.001 0.001c0.75 0.825 1.209 1.926 1.209 3.134 0 0.103-0.003 0.205-0.010 0.306l0.001-0.014c0.001 0.22 0.18 0.399 0.4 0.399 0 0 0 0 0 0v0l0.013 0.016c0 0 0 0 0 0 0.221 0 0.4-0.179 0.4-0.4 0-0 0-0.001 0-0.001v0c0.040-1.587-0.453-2.92-1.427-3.987s-2.333-1.667-4.067-1.787c-0.008-0.001-0.018-0.001-0.028-0.001s-0.020 0-0.029 0.001l0.001-0zM17.112 9.997c-0.004-0-0.008-0-0.012-0-0.225 0-0.407 0.182-0.407 0.408 0 0.221 0.176 0.401 0.395 0.407h0.001c1.32 0.067 1.96 0.733 2.040 2.107 0.007 0.215 0.184 0.387 0.4 0.387 0 0 0 0 0 0h0.013c0.215-0.007 0.388-0.183 0.388-0.4 0-0.009-0-0.019-0.001-0.028l0 0.001c-0.093-1.787-1.067-2.788-2.8-2.881-0.002-0-0.005-0-0.008-0s-0.006 0-0.008 0h0z"></path>
</symbol>
<symbol id="icon-phone" viewBox="0 0 32 32">
<path d="M22 20c-2 2-2 4-4 4s-4-2-6-4-4-4-4-6 2-2 4-4-4-8-6-8-6 6-6 6c0 4 4.109 12.109 8 16s12 8 16 8c0 0 6-4 6-6s-6-8-8-6z"></path>
</symbol>
<symbol id="icon-location" viewBox="0 0 32 32">
<path d="M16 0c-5.523 0-10 4.477-10 10 0 10 10 22 10 22s10-12 10-22c0-5.523-4.477-10-10-10zM16 16c-3.314 0-6-2.686-6-6s2.686-6 6-6 6 2.686 6 6-2.686 6-6 6z"></path>
</symbol>
<symbol id="icon-clock" viewBox="0 0 32 32">
<path d="M20.586 23.414l-6.586-6.586v-8.828h4v7.172l5.414 5.414zM16 0c-8.837 0-16 7.163-16 16s7.163 16 16 16 16-7.163 16-16-7.163-16-16-16zM16 28c-6.627 0-12-5.373-12-12s5.373-12 12-12c6.627 0 12 5.373 12 12s-5.373 12-12 12z"></path>
</symbol>
<symbol id="icon-clock2" viewBox="0 0 32 32">
<path d="M16 0c-8.837 0-16 7.163-16 16s7.163 16 16 16 16-7.163 16-16-7.163-16-16-16zM20.586 23.414l-6.586-6.586v-8.828h4v7.172l5.414 5.414-2.829 2.829z"></path>
</symbol>
<symbol id="icon-mail" viewBox="0 0 32 32">
<path d="M26.666 0h-21.332c-2.934 0-5.334 2.4-5.334 5.333v21.333c0 2.934 2.4 5.334 5.334 5.334h21.332c2.936 0 5.334-2.4 5.334-5.334v-21.333c0-2.934-2.398-5.333-5.334-5.333zM8 8h16c0.286 0 0.563 0.061 0.817 0.177l-8.817 10.286-8.817-10.287c0.254-0.116 0.531-0.177 0.817-0.177zM6 22v-12c0-0.042 0.002-0.084 0.004-0.125l5.864 6.842-5.8 5.8c-0.045-0.167-0.069-0.34-0.069-0.517zM24 24h-16c-0.177 0-0.35-0.024-0.517-0.069l5.691-5.691 2.826 3.297 2.826-3.297 5.691 5.691c-0.167 0.045-0.34 0.069-0.517 0.069zM26 22c0 0.177-0.024 0.35-0.069 0.517l-5.8-5.8 5.864-6.842c0.003 0.041 0.004 0.083 0.004 0.125v12z"></path>
</symbol>
<symbol id="icon-whatsapp1" viewBox="0 0 32 32">
<path d="M27.281 4.65c-2.994-3-6.975-4.65-11.219-4.65-8.738 0-15.85 7.112-15.85 15.856 0 2.794 0.731 5.525 2.119 7.925l-2.25 8.219 8.406-2.206c2.319 1.262 4.925 1.931 7.575 1.931h0.006c0 0 0 0 0 0 8.738 0 15.856-7.113 15.856-15.856 0-4.238-1.65-8.219-4.644-11.219zM16.069 29.050v0c-2.369 0-4.688-0.637-6.713-1.837l-0.481-0.288-4.987 1.306 1.331-4.863-0.313-0.5c-1.325-2.094-2.019-4.519-2.019-7.012 0-7.269 5.912-13.181 13.188-13.181 3.519 0 6.831 1.375 9.319 3.862 2.488 2.494 3.856 5.8 3.856 9.325-0.006 7.275-5.919 13.188-13.181 13.188zM23.294 19.175c-0.394-0.2-2.344-1.156-2.706-1.288s-0.625-0.2-0.894 0.2c-0.262 0.394-1.025 1.288-1.256 1.556-0.231 0.262-0.462 0.3-0.856 0.1s-1.675-0.619-3.188-1.969c-1.175-1.050-1.975-2.35-2.206-2.744s-0.025-0.613 0.175-0.806c0.181-0.175 0.394-0.463 0.594-0.694s0.262-0.394 0.394-0.662c0.131-0.262 0.069-0.494-0.031-0.694s-0.894-2.15-1.219-2.944c-0.319-0.775-0.65-0.669-0.894-0.681-0.231-0.012-0.494-0.012-0.756-0.012s-0.694 0.1-1.056 0.494c-0.363 0.394-1.387 1.356-1.387 3.306s1.419 3.831 1.619 4.1c0.2 0.262 2.794 4.269 6.769 5.981 0.944 0.406 1.681 0.65 2.256 0.837 0.95 0.3 1.813 0.256 2.494 0.156 0.762-0.113 2.344-0.956 2.675-1.881s0.331-1.719 0.231-1.881c-0.094-0.175-0.356-0.275-0.756-0.475z"></path>
</symbol>
<symbol id="icon-telegram" viewBox="0 0 32 32">
<path d="M16 0c-8.838 0-16 7.162-16 16s7.162 16 16 16 16-7.163 16-16-7.163-16-16-16zM23.863 10.969l-2.625 12.369c-0.181 0.881-0.712 1.087-1.45 0.681l-4-2.956-1.919 1.869c-0.225 0.219-0.4 0.4-0.8 0.4-0.519 0-0.431-0.194-0.606-0.688l-1.363-4.475-3.956-1.231c-0.856-0.262-0.862-0.85 0.194-1.269l15.412-5.95c0.7-0.319 1.381 0.169 1.113 1.25z"></path>
</symbol>
</defs>
</svg>
