<svg width="270" height="272" viewBox="0 0 270 272" fill="none" xmlns="http://www.w3.org/2000/svg">
<path d="M44 187.634L80.6176 167.22V208.049L44 187.634Z" fill="#004AAD"/>
<path d="M92.8235 158.146V214.854L127 233V140L92.8235 158.146Z" fill="#004AAD"/>
<path d="M44 187.634L80.6176 167.22V208.049L44 187.634Z" stroke="#004AAD" stroke-width="0.5"/>
<path d="M92.8235 158.146V214.854L127 233V140L92.8235 158.146Z" stroke="#004AAD" stroke-width="0.5"/>
<path d="M140 131.769V237L177.286 215.954V110.723L140 131.769Z" fill="#004AAD"/>
<path d="M189.714 106.046V208.938L227 190.231V85L189.714 106.046Z" fill="#004AAD"/>
<path d="M140 131.769V237L177.286 215.954V110.723L140 131.769Z" stroke="#004AAD" stroke-width="0.5"/>
<path d="M189.714 106.046V208.938L227 190.231V85L189.714 106.046Z" stroke="#004AAD" stroke-width="0.5"/>
<path d="M99.7525 105.741V77.8103H129.337V105.741H99.7525Z" fill="#FBBF24"/>
<path d="M139.198 105.741V77.8103H168.782V105.741H139.198Z" fill="#FBBF24"/>
<path d="M99.7525 140.655V115.052H129.337V124.362L99.7525 140.655Z" fill="#FBBF24"/>
<path d="M139.198 119.707V115.052H151.525L139.198 119.707Z" fill="#FBBF24"/>
<path d="M11 66.1724V122.034L30.7228 112.724V77.8103L134.267 21.9483L237.812 79.4329V191.862L134.267 247.724L99.7525 229.103L77.5644 240.741L134.267 271L260 203.5V66.1724L208.228 38.2414V24.2759L181.109 10.3103V24.2759L136.733 1H131.802L11 66.1724Z" fill="#FBBF24"/>
<path d="M99.7525 105.741V77.8103H129.337V105.741H99.7525Z" stroke="#FBBF24" stroke-width="0.5"/>
<path d="M139.198 105.741V77.8103H168.782V105.741H139.198Z" stroke="#FBBF24" stroke-width="0.5"/>
<path d="M99.7525 140.655V115.052H129.337V124.362L99.7525 140.655Z" stroke="#FBBF24" stroke-width="0.5"/>
<path d="M139.198 119.707V115.052H151.525L139.198 119.707Z" stroke="#FBBF24" stroke-width="0.5"/>
<path d="M11 66.1724V122.034L30.7228 112.724V77.8103L134.267 21.9483L237.812 79.4329V191.862L134.267 247.724L99.7525 229.103L77.5644 240.741L134.267 271L260 203.5V66.1724L208.228 38.2414V24.2759L181.109 10.3103V24.2759L136.733 1H131.802L11 66.1724Z" stroke="#FBBF24" stroke-width="0.5"/>
</svg>
