<svg width="89" height="96" viewBox="0 0 89 96" fill="none" xmlns="http://www.w3.org/2000/svg">
<g filter="url(#filter0_d_100_2)">
<path d="M15 60.3659L26.9118 53.7805V66.9512L15 60.3659Z" fill="#141414"/>
<path d="M30.8824 50.8537V69.1463L42 75V45L30.8824 50.8537Z" fill="#141414"/>
<path d="M15 60.3659L26.9118 53.7805V66.9512L15 60.3659Z" stroke="#141414" stroke-width="0.5"/>
<path d="M30.8824 50.8537V69.1463L42 75V45L30.8824 50.8537Z" stroke="#141414" stroke-width="0.5"/>
<path d="M46 43.4615V76L58 69.4923V36.9538L46 43.4615Z" fill="#141414"/>
<path d="M62 35.5077V67.3231L74 61.5385V29L62 35.5077Z" fill="#141414"/>
<path d="M46 43.4615V76L58 69.4923V36.9538L46 43.4615Z" stroke="#141414" stroke-width="0.5"/>
<path d="M62 35.5077V67.3231L74 61.5385V29L62 35.5077Z" stroke="#141414" stroke-width="0.5"/>
<path d="M33.1584 34.9741V26.181H42.5446V34.9741H33.1584Z" fill="#141414"/>
<path d="M45.6733 34.9741V26.181H55.0594V34.9741H45.6733Z" fill="#141414"/>
<path d="M33.1584 45.9655V37.9052H42.5446V40.8362L33.1584 45.9655Z" fill="#141414"/>
<path d="M45.6733 39.3707V37.9052H49.5842L45.6733 39.3707Z" fill="#141414"/>
<path d="M5 22.5172V40.1035L11.2574 37.1724V26.181L44.1089 8.59483L76.9604 26.6918V62.0862L44.1089 79.6724L33.1584 73.8103L26.1188 77.4741L44.1089 87L84 65.75V22.5172L67.5743 13.7241V9.32759L58.9703 4.93103V9.32759L44.8911 2H43.3267L5 22.5172Z" fill="#141414"/>
<path d="M33.1584 34.9741V26.181H42.5446V34.9741H33.1584Z" stroke="#141414" stroke-width="0.5"/>
<path d="M45.6733 34.9741V26.181H55.0594V34.9741H45.6733Z" stroke="#141414" stroke-width="0.5"/>
<path d="M33.1584 45.9655V37.9052H42.5446V40.8362L33.1584 45.9655Z" stroke="#141414" stroke-width="0.5"/>
<path d="M45.6733 39.3707V37.9052H49.5842L45.6733 39.3707Z" stroke="#141414" stroke-width="0.5"/>
<path d="M5 22.5172V40.1035L11.2574 37.1724V26.181L44.1089 8.59483L76.9604 26.6918V62.0862L44.1089 79.6724L33.1584 73.8103L26.1188 77.4741L44.1089 87L84 65.75V22.5172L67.5743 13.7241V9.32759L58.9703 4.93103V9.32759L44.8911 2H43.3267L5 22.5172Z" stroke="#141414" stroke-width="0.5"/>
</g>
<defs>
<filter id="filter0_d_100_2" x="-3" y="0" width="95" height="95.2832" filterUnits="userSpaceOnUse" color-interpolation-filters="sRGB">
<feFlood flood-opacity="0" result="BackgroundImageFix"/>
<feColorMatrix in="SourceAlpha" type="matrix" values="0 0 0 0 0 0 0 0 0 0 0 0 0 0 0 0 0 0 127 0" result="hardAlpha"/>
<feOffset dy="4"/>
<feGaussianBlur stdDeviation="2"/>
<feComposite in2="hardAlpha" operator="out"/>
<feColorMatrix type="matrix" values="0 0 0 0 0 0 0 0 0 0 0 0 0 0 0 0 0 0 0.25 0"/>
<feBlend mode="normal" in2="BackgroundImageFix" result="effect1_dropShadow_100_2"/>
<feBlend mode="normal" in="SourceGraphic" in2="effect1_dropShadow_100_2" result="shape"/>
</filter>
</defs>
</svg>
